<?xml version="1.0" encoding="UTF-8" standalone="no"?>
<svg width="100" height="100" viewBox="0 0 100 100" xmlns="http://www.w3.org/2000/svg">
  <style>
    .icon-bg { fill: #E8F5E9; }
    .icon-guide { fill: #2E7D32; }
    .icon-page { fill: #FFFFFF; stroke: #795548; stroke-width: 1; }
  </style>
  
  <circle cx="50" cy="50" r="45" class="icon-bg" />
  
  <!-- Book/Guide -->
  <rect x="25" y="25" width="50" height="60" rx="2" class="icon-guide" />
  <rect x="30" y="30" width="40" height="50" class="icon-page" />
  
  <!-- Plant illustration on page -->
  <path d="M50,65 L50,50 M50,50 L45,45 M50,50 L55,45" stroke="#81C784" stroke-width="2" />
  <path d="M45,45 C40,40 35,42 37,47 C32,49 34,57 39,55 C41,60 49,60 51,55 C56,57 58,49 53,47 C55,42 50,40 45,45 Z" fill="#81C784" />
  
  <!-- Text lines -->
  <line x1="35" y1="35" x2="65" y2="35" stroke="#795548" stroke-width="1" />
  <line x1="35" y1="40" x2="65" y2="40" stroke="#795548" stroke-width="1" />
  <line x1="35" y1="70" x2="65" y2="70" stroke="#795548" stroke-width="1" />
  <line x1="35" y1="75" x2="55" y2="75" stroke="#795548" stroke-width="1" />
</svg>
