<?xml version="1.0" encoding="UTF-8" standalone="no"?>
<svg width="100" height="100" viewBox="0 0 100 100" xmlns="http://www.w3.org/2000/svg">
  <style>
    .icon-bg { fill: #E8F5E9; }
    .icon-habitat { fill: #2E7D32; }
  </style>
  
  <circle cx="50" cy="50" r="45" class="icon-bg" />
  
  <!-- Mountains -->
  <path class="icon-habitat" d="M10,70 L30,40 L40,55 L60,30 L90,70 Z" />
  
  <!-- Sun -->
  <circle cx="75" cy="25" r="10" fill="#FFC107" />
  
  <!-- Trees -->
  <path fill="#2E7D32" d="M20,70 L20,60 L15,60 L25,50 L20,50 L30,40 L40,50 L35,50 L40,60 L35,60 L35,70 Z" />
  <path fill="#2E7D32" d="M50,70 L50,65 L47,65 L52,60 L49,60 L54,55 L59,60 L56,60 L61,65 L58,65 L58,70 Z" />
</svg>
