<?xml version="1.0" encoding="UTF-8" standalone="no"?>
<svg width="100" height="100" viewBox="0 0 100 100" xmlns="http://www.w3.org/2000/svg">
  <style>
    .icon-bg { fill: #E8F5E9; }
    .icon-season { fill: #2E7D32; }
    .icon-sun { fill: #FFC107; }
  </style>
  
  <circle cx="50" cy="50" r="45" class="icon-bg" />
  
  <!-- Four seasons represented in quadrants -->
  <!-- Spring (flowers) -->
  <circle cx="30" cy="30" r="10" fill="#F48FB1" />
  <circle cx="30" cy="30" r="5" fill="#FFC107" />
  
  <!-- Summer (sun) -->
  <circle cx="70" cy="30" r="10" class="icon-sun" />
  <path class="icon-sun" d="M70,15 L70,5 M70,55 L70,45 M85,30 L95,30 M45,30 L55,30 M80,20 L87,13 M53,47 L60,40 M80,40 L87,47 M53,13 L60,20" stroke="#FFC107" stroke-width="2" />
  
  <!-- Fall (leaf) -->
  <path class="icon-season" d="M30,70 C25,65 20,67 22,72 C17,74 19,82 24,80 C26,85 34,85 36,80 C41,82 43,74 38,72 C40,67 35,65 30,70 Z" />
  
  <!-- Winter (snowflake) -->
  <path fill="#81C784" d="M70,70 L70,60 L65,60 L75,50 L70,50 L80,40 L90,50 L85,50 L95,60 L90,60 L90,70 Z" />
  <circle cx="70" cy="65" r="2" fill="white" />
  <circle cx="75" cy="60" r="2" fill="white" />
  <circle cx="65" cy="60" r="2" fill="white" />
</svg>
